<?xml version="1.0" encoding="UTF-8" standalone="no"?>
<svg
   xmlns:dc="http://purl.org/dc/elements/1.1/"
   xmlns:cc="http://creativecommons.org/ns#"
   xmlns:rdf="http://www.w3.org/1999/02/22-rdf-syntax-ns#"
   xmlns:svg="http://www.w3.org/2000/svg"
   xmlns="http://www.w3.org/2000/svg"
   xmlns:sodipodi="http://sodipodi.sourceforge.net/DTD/sodipodi-0.dtd"
   xmlns:inkscape="http://www.inkscape.org/namespaces/inkscape"
   version="1.1"
   id="Ebene_1"
   x="0px"
   y="0px"
   viewBox="0 0 40 40"
   style="enable-background:new 0 0 40 40;"
   xml:space="preserve"
   sodipodi:docname="defaultProfile.svg"
   inkscape:version="1.0.1 (3bc2e813f5, 2020-09-07)"><metadata
   id="metadata21"><rdf:RDF><cc:Work
       rdf:about=""><dc:format>image/svg+xml</dc:format><dc:type
         rdf:resource="http://purl.org/dc/dcmitype/StillImage" /><dc:title></dc:title></cc:Work></rdf:RDF></metadata><defs
   id="defs19" /><sodipodi:namedview
   pagecolor="#ffffff"
   bordercolor="#666666"
   borderopacity="1"
   objecttolerance="10"
   gridtolerance="10"
   guidetolerance="10"
   inkscape:pageopacity="0"
   inkscape:pageshadow="2"
   inkscape:window-width="2100"
   inkscape:window-height="1247"
   id="namedview17"
   showgrid="false"
   inkscape:zoom="21.3"
   inkscape:cx="20"
   inkscape:cy="20"
   inkscape:window-x="4792"
   inkscape:window-y="1147"
   inkscape:window-maximized="1"
   inkscape:current-layer="Ebene_1" />
<style
   type="text/css"
   id="style2">
	.st0{fill:#FF00FF;}
</style>
<g
   id="g12">
	<rect
   y="39.8"
   class="st0"
   width="0.2"
   height="0.2"
   id="rect4" />
	<rect
   x="39.8"
   y="39.8"
   class="st0"
   width="0.2"
   height="0.2"
   id="rect6" />
	<rect
   y="0"
   class="st0"
   width="0.1"
   height="0.1"
   id="rect8" />
	<rect
   x="39.9"
   y="0"
   class="st0"
   width="0.1"
   height="0.1"
   id="rect10" />
</g>
<path
   class="st0"
   d="M20,1.9C10,1.9,1.9,10,1.9,20S10,38.1,20,38.1S38.1,30,38.1,20S30,1.9,20,1.9z M20,3.1  c9.3,0,16.9,7.6,16.9,16.9c0,3.4-1,6.6-2.8,9.2c-2.1-2.4-5.1-5.2-9-5.6c2.1-2.5,3.2-6.1,3.2-8.5c0-4.7-3.5-8.1-8.3-8.1  c-5.1,0-8.3,4.2-8.3,8.1c0,2.5,1,6.1,3.1,8.5C11,24.1,8,26.9,5.9,29.2c-1.7-2.7-2.8-5.8-2.8-9.2C3.1,10.7,10.7,3.1,20,3.1z M13,15.1  c0-3.3,2.7-6.8,7-6.8c4.1,0,7,2.9,7,6.8c0,3.4-2.5,9.9-7,9.9C15.4,25,13,18.5,13,15.1z M20,36.9c-5.4,0-10.2-2.6-13.3-6.6  c2.2-2.6,5.3-5.5,9.3-5.5c0,0,0.1,0,0.1,0c1.1,0.9,2.4,1.5,4,1.5c1.5,0,2.8-0.6,3.9-1.5c0,0,0.1,0,0.1,0c4,0,7,2.9,9.3,5.5  C30.2,34.3,25.4,36.9,20,36.9z"
   id="path14"
   style="fill:#424242;fill-opacity:1" />
</svg>
